# AST/ASF file generated using VICON BodyLanguage
# -----------------------------------------------
:version 1.10
:name VICON
:units
  mass 1.0
  length 0.45
  angle deg
:documentation
   .ast/.asf automatically generated from VICON data using
   VICON BodyBuilder and BodyLanguage model FoxedUp or BRILLIANT.MOD
:root
   order TX TY TZ RX RY RZ
   axis XYZ
   position 0 0 0  
   orientation 0 0 0 
:bonedata
  begin
     id 1 
     name lhipjoint
     direction 0.690799 -0.707083 0.151096 
     length 2.54797 
     axis 0 0 0  XYZ
  end
  begin
     id 2 
     name lfemur
     direction 0.34202 -0.939693 0  
     length 7.21646  
     axis 0 0 20  XYZ
    dof rx ry rz
    limits (-160.0 20.0)
           (-70.0 70.0)
           (-60.0 70.0)
  end
  begin
     id 3 
     name ltibia
     direction 0.34202 -0.939693 0   
     length 8.16759   
     axis 0 0 20   XYZ
    dof rx
    limits (-10.0 170.0)
  end
  begin
     id 4 
     name lfoot
     direction 0.0487203 -0.133858 0.989802   
     length 1.93375   
     axis -90 7.62852e-016 20   XYZ
    dof rx rz
    limits (-45.0 90.0)
           (-70.0 20.0)
  end
  begin
     id 5 
     name ltoes
     direction 1.53453e-011 -4.21783e-011 1   
     length 0.979747   
     axis -90 7.62852e-016 20   XYZ
    dof rx
    limits (-90.0 20.0)
  end
  begin
     id 6 
     name rhipjoint
     direction -0.694693 -0.703425 0.150315   
     length 2.56122  
     axis 0 0 0  XYZ 
  end
  begin
     id 7 
     name rfemur
     direction -0.34202 -0.939693 0   
     length 7.36786   
     axis 0 0 -20   XYZ
    dof rx ry rz
    limits (-160.0 20.0)
           (-70.0 70.0)
           (-70.0 60.0)
  end
  begin
     id 8 
     name rtibia
     direction -0.34202 -0.939693 0   
     length 8.07288   
     axis 0 0 -20   XYZ
    dof rx
    limits (-10.0 170.0)
 end
 begin
     id 9 
     name rfoot
     direction -0.0428397 -0.117701 0.992125   
     length 1.88295  
     axis -90 -7.62852e-016 -20   XYZ
    dof rx rz
    limits (-45.0 90.0)
           (-20.0 70.0)
  end
  begin
     id 10 
     name rtoes
     direction -1.53456e-011 -4.2187e-011 1   
     length 0.955578   
     axis -90 -7.62852e-016 -20   XYZ
    dof rx
    limits (-90.0 20.0)
  end
  begin
     id 11 
     name lowerback
     direction 0.0288145 0.999398 -0.0193241   
     length 1.92149   
     axis 0 0 0   XYZ
    dof rx ry rz
    limits (-20.0 45.0)
           (-30.0 30.0)
           (-30.0 30.0)
  end
  begin
     id 12 
     name upperback
     direction 0.0233784 0.998099 0.0570278   
     length 1.90435   
     axis 0 0 0   XYZ
    dof rx ry rz
    limits (-20.0 45.0)
           (-30.0 30.0)
           (-30.0 30.0)
  end
  begin
     id 13 
     name thorax
     direction 0.0096694 0.997833 0.0650817   
     length 1.9111   
     axis 0 0 0   XYZ
    dof rx ry rz
    limits (-20.0 45.0)
           (-30.0 30.0)
           (-30.0 30.0)
  end
  begin
     id 14 
     name lowerneck
     direction 0.00516803 0.999916 0.0118722   
     length 1.74664   
     axis 0 0 0   XYZ
    dof rx ry rz
    limits (-20.0 45.0)
           (-30.0 30.0)
           (-30.0 30.0)
  end
  begin
     id 15 
     name upperneck
     direction -0.0510851 0.996117 -0.071696   
     length 1.68498   
     axis 0 0 0   XYZ
    dof rx ry rz
    limits (-20.0 45.0)
           (-30.0 30.0)
           (-30.0 30.0)
  end
  begin
     id 16
     name head
     direction -0.019188 0.999436 -0.0275702  
     length 1.83483  
     axis 0 0 0   XYZ
    dof rx ry rz
    limits (-20.0 45.0)
           (-30.0 30.0)
           (-30.0 30.0)
  end
  begin
     id 17 
     name lclavicle
     direction 0.967006 0.248456 -0.0562957  
     length 3.39395  
     axis 0 0 0   XYZ
    dof ry rz
    limits (-20.0 10.0)
           (0.0 20.0)
  end
  begin
     id 18 
     name lhumerus
     direction 1 -4.48962e-011 -5.62711e-019   
     length 5.24318   
     axis 180 -30 -90   XYZ
    dof rx ry rz
    limits (-60.0 90.0)
           (-90.0 90.0)
           (-90.0 90.0)
  end
  begin
     id 19
     name lradius
     direction 1 -4.48966e-011 7.90625e-027   
     length 2.98999   
     axis 180 -30 -90   XYZ
    dof rx
    limits (-10.0 170.0)
  end
  begin
     id 20
     name lwrist
     direction 1 -4.48959e-011 1.61068e-026   
     length 1.49499   
     axis -9.31229e-015 90 90   XYZ
    dof ry
    limits (-180.0 0.0)
 end
  begin
     id 21 
     name lhand
     direction 1 -4.49017e-011 3.22136e-026   
     length 0.726745   
     axis -2.0555e-014 90 90   XYZ
    dof rx rz
    limits (-90.0 90.0)
           (-45.0 45.0)
  end
  begin
     id 22 
     name lfingers
     direction 1 -4.4898e-011 6.44272e-026   
     length 0.58592   
     axis -4.11101e-014 90 90   XYZ
    dof rx
    limits (0.0 90.0)
  end
  begin
     id 23
     name lthumb
     direction 0.707107 -6.34922e-011 0.707107   
     length 0.841268   
     axis -90 45 2.85299e-015   XYZ
    dof rx rz
    limits (-45.0 45.0)
           (-45.0 45.0)
  end
  begin
     id 24 
     name rclavicle
     direction -0.972232 0.230238 0.0419005   
     length 3.40416  
     axis 0 0 0   XYZ 
    dof ry rz
    limits (-10.0 20.0)
           (-20.0 0.0)
  end
  begin
     id 25 
     name rhumerus
     direction -1 -4.48976e-011 2.48487e-027  
     length 5.37045   
     axis 180 30 90   XYZ
    dof rx ry rz
    limits (-90.0 60.0)
           (-90.0 90.0)
           (-90.0 90.0)
  end
  begin
     id 26 
     name rradius
     direction -1 -4.48942e-011 7.87951e-027   
     length 2.92792   
     axis 180 30 90   XYZ
    dof rx
    limits (-10.0 170.0)
  end
  begin
     id 27 
     name rwrist
     direction -1 -4.48969e-011 1.61068e-026   
     length 1.46396   
     axis -9.31229e-015 -90 -90   XYZ
    dof ry
    limits (-180.0 0.0)
  end
  begin
     id 28
     name rhand
     direction -1 -4.49043e-011 3.22136e-026   
     length 0.784497   
     axis -2.0555e-014 -90 -90   XYZ
    dof rx rz
    limits (-90.0 90.0)
           (-45.0 45.0)
  end
  begin
     id 29
     name rfingers
     direction -1 -4.48823e-011 6.44272e-026   
     length 0.632482   
     axis -4.11101e-014 -90 -90   XYZ
    dof rx
    limits (0.0 90.0)
  end
  begin
     id 30
     name rthumb
     direction -0.707107 -6.34923e-011 0.707107   
     length 0.908121   
     axis -90 -45 -2.85299e-015   XYZ
    dof rx rz
    limits (-45.0 45.0)
           (-45.0 45.0)
  end
:hierarchy
  begin
    root lhipjoint rhipjoint lowerback
    lhipjoint lfemur
    lfemur ltibia
    ltibia lfoot
    lfoot ltoes
    rhipjoint rfemur
    rfemur rtibia
    rtibia rfoot
    rfoot rtoes
    lowerback upperback
    upperback thorax
    thorax lowerneck lclavicle rclavicle
    lowerneck upperneck
    upperneck head
    lclavicle lhumerus
    lhumerus lradius
    lradius lwrist
    lwrist lhand lthumb
    lhand lfingers
    rclavicle rhumerus
    rhumerus rradius
    rradius rwrist
    rwrist rhand rthumb
    rhand rfingers
  end

#!OML:ASF E:\Style6\Style6.ASF
:FULLY-SPECIFIED
:DEGREES
1137
root 1.33682 15.9818 0.567128 14.6048 -5.09398 3.09152
lowerback 5.43937 -2.15955 7.33854
upperback -7.40223 -1.36059 8.23743
thorax -11.0952 -0.842532 5.07982
lowerneck -12.6321 -1.0569 6.14484
upperneck 25.124 -2.5182 -2.07682
head 9.96297 -0.840883 -2.08115
rclavicle -4.07509e-014 9.54166e-015
rhumerus 13.5488 -40.2085 13.3347
rradius 55.3518
rwrist 35.3541
rhand 23.6603 3.00124
rfingers 7.12502
rthumb 47.9284 -19.2449
lclavicle -4.07509e-014 9.54166e-015
lhumerus -99.4498 -54.6348 123.788
lradius 89.6558
lwrist 28.662
lhand 5.53316 7.37131
lfingers 7.12502
lthumb 30.8784 34.7959
rfemur -47.7199 -21.3432 15.3886
rtibia 65.0885
rfoot -21.7968 15.7348
rtoes -0.286652
lfemur -45.5054 18.2825 -30.0706
ltibia 63.6474
lfoot -27.1961 -8.46004
ltoes -5.21152
1138
root 1.34746 15.9851 0.573509 14.5651 -5.05508 3.29019
lowerback 5.50706 -2.17058 7.4428
upperback -7.45573 -1.34015 8.32666
thorax -11.2032 -0.8362 5.12895
lowerneck -12.5691 -1.0173 6.02943
upperneck 25.2351 -2.47112 -1.93712
head 9.99742 -0.811289 -2.00828
rclavicle 1.98785e-015 -8.26944e-014
rhumerus 13.5987 -40.2408 13.3272
rradius 55.3424
rwrist 35.3945
rhand 23.5017 2.98941
rfingers 7.12502
rthumb 47.7821 -19.3244
lclavicle 1.98785e-015 -8.26944e-014
lhumerus -99.8141 -54.5059 124.203
lradius 89.7483
lwrist 28.6563
lhand 5.72329 7.37168
lfingers 7.12502
lthumb 31.0596 34.7618
rfemur -47.6555 -21.5149 15.1202
rtibia 65.0953
rfoot -21.6989 15.9286
rtoes 0.330777
lfemur -45.3555 18.2156 -30.307
ltibia 63.4803
lfoot -27.2542 -8.22631
ltoes -6.23339
1139
root 1.3594 15.9878 0.581168 14.582 -5.01514 3.40713
lowerback 5.47056 -2.17302 7.66077
upperback -7.4703 -1.31407 8.41374
thorax -11.2078 -0.836735 5.10116
lowerneck -12.565 -0.962918 6.10122
upperneck 25.3079 -2.40849 -1.95609
head 10.0249 -0.775885 -2.02103
rclavicle 3.18055e-015 -2.54444e-014
rhumerus 13.6556 -40.3859 13.2216
rradius 55.3367
rwrist 35.5577
rhand 23.4818 3.09875
rfingers 7.12502
rthumb 47.7638 -19.2235
lclavicle 3.18055e-015 -2.54444e-014
lhumerus -100.162 -54.464 124.599
lradius 89.8065
lwrist 28.6927
lhand 5.75521 7.38206
lfingers 7.12502
lthumb 31.09 34.7663
rfemur -47.6417 -21.6634 14.9585
rtibia 65.1001
rfoot -21.6623 16.1067
rtoes 0.582442
lfemur -45.2777 18.1775 -30.4748
ltibia 63.3365
lfoot -27.2736 -8.0458
ltoes -7.15445
1140
root 1.37006 15.9883 0.590534 14.6058 -5.06041 3.62913
lowerback 5.30004 -2.1271 7.74923
upperback -7.42576 -1.2672 8.45254
thorax -11.0571 -0.819256 5.07255
lowerneck -12.5471 -0.939671 6.17054
upperneck 25.266 -2.39255 -1.94517
head 10.0069 -0.761278 -2.0259
rclavicle 1.43125e-014 -6.36111e-015
rhumerus 13.6301 -40.6747 13.1344
rradius 55.3184
rwrist 35.7852
rhand 23.4646 3.24528
rfingers 7.12502
rthumb 47.7479 -19.0843
lclavicle 1.43125e-014 -6.36111e-015
lhumerus -100.502 -54.579 124.992
lradius 89.8753
lwrist 28.7815
lhand 5.66353 7.53085
lfingers 7.12502
lthumb 31.0027 34.9318
rfemur -47.6834 -21.7387 14.6731
rtibia 65.1261
rfoot -21.7624 16.0603
rtoes -0.229771
lfemur -45.2045 18.1682 -30.7677
ltibia 63.2012
lfoot -27.2556 -8.1461
ltoes -6.85511
1141
root 1.37901 15.9895 0.598748 14.6215 -5.1065 3.84672
lowerback 5.15106 -2.08383 7.81734
upperback -7.39461 -1.2228 8.48353
thorax -10.9342 -0.801628 5.04992
lowerneck -12.5141 -0.910624 6.22763
upperneck 25.2451 -2.37646 -1.8912
head 9.99466 -0.74238 -2.01374
rclavicle 2.20651e-014 -4.77083e-014
rhumerus 13.584 -40.8808 13.0442
rradius 55.3535
rwrist 35.9037
rhand 23.4458 3.27675
rfingers 7.12502
rthumb 47.7305 -19.0608
lclavicle 2.20651e-014 -4.77083e-014
lhumerus -100.966 -54.6737 125.411
lradius 89.9758
lwrist 28.9235
lhand 5.41774 7.50258
lfingers 7.12502
lthumb 30.7683 34.9479
rfemur -47.7105 -21.7624 14.3923
rtibia 65.152
rfoot -21.8513 15.9363
rtoes -0.955468
lfemur -45.1366 18.1694 -31.0532
ltibia 63.0751
lfoot -27.244 -8.22775
ltoes -6.67187
1142
root 1.38702 15.9915 0.605861 14.624 -5.10866 3.93192
lowerback 5.09015 -2.09558 7.98403
upperback -7.3412 -1.22953 8.55083
thorax -10.8426 -0.814205 5.02508
lowerneck -12.7184 -0.811345 6.44142
upperneck 25.4188 -2.29801 -1.92515
head 10.0987 -0.685185 -2.05862
rclavicle -9.93923e-016 -3.18055e-015
rhumerus 13.5929 -41.0461 12.8423
rradius 55.3841
rwrist 35.8929
rhand 23.393 3.24472
rfingers 7.12502
rthumb 47.6818 -19.1152
lclavicle -9.93923e-016 -3.18055e-015
lhumerus -101.3 -54.7024 125.624
lradius 90.074
lwrist 29.0786
lhand 5.20889 7.4288
lfingers 7.12502
lthumb 30.5692 34.9115
rfemur -47.6838 -21.7541 14.243
rtibia 65.1724
rfoot -21.7754 16.09
rtoes -0.166258
lfemur -45.0597 18.1878 -31.1836
ltibia 62.9534
lfoot -27.2767 -8.09604
ltoes -7.43275
1143
root 1.39724 15.9913 0.612729 14.6524 -5.07609 4.17792
lowerback 4.9958 -2.15544 7.98608
upperback -7.2916 -1.32349 8.61354
thorax -10.7258 -0.856178 5.09658
lowerneck -12.9906 -0.69296 6.59452
upperneck 25.6213 -2.18976 -1.94179
head 10.2294 -0.617203 -2.0849
rclavicle -3.73715e-014 9.54166e-015
rhumerus 13.7424 -41.2658 12.5307
rradius 55.4399
rwrist 35.8908
rhand 23.4752 3.24176
rfingers 7.12502
rthumb 47.7577 -19.0833
lclavicle -3.73715e-014 9.54166e-015
lhumerus -101.412 -54.6761 125.611
lradius 90.1818
lwrist 29.1583
lhand 5.16674 7.39239
lfingers 7.12502
lthumb 30.529 34.8826
rfemur -47.7159 -21.905 13.9438
rtibia 65.2168
rfoot -21.8037 16.1385
rtoes -0.319599
lfemur -44.9965 18.0921 -31.4936
ltibia 62.8088
lfoot -27.3004 -7.92707
ltoes -8.11229
1144
root 1.40995 15.9934 0.61956 14.6354 -4.96822 4.56256
lowerback 4.88386 -2.21577 7.90326
upperback -7.2644 -1.42852 8.64996
thorax -10.6198 -0.898341 5.18761
lowerneck -13.0959 -0.631918 6.54391
upperneck 25.7217 -2.14359 -1.78882
head 10.2926 -0.580016 -2.01964
rclavicle 2.38542e-015 1.59028e-014
rhumerus 13.8406 -41.4139 12.3727
rradius 55.4785
rwrist 35.8161
rhand 23.5593 3.20678
rfingers 7.12502
rthumb 47.8353 -19.0825
lclavicle 2.38542e-015 1.59028e-014
lhumerus -101.709 -54.6756 125.856
lradius 90.2506
lwrist 28.9652
lhand 4.93674 7.20934
lfingers 7.12502
lthumb 30.3096 34.7401
rfemur -47.679 -22.17 13.4683
rtibia 65.2681
rfoot -21.7243 16.3189
rtoes 0.40069
lfemur -44.8554 17.9245 -31.9309
ltibia 62.6335
lfoot -27.2671 -7.92665
ltoes -8.15535
1145
root 1.42071 15.9974 0.628082 14.598 -4.87941 4.92643
lowerback 4.77385 -2.25218 7.80906
upperback -7.25197 -1.49916 8.69951
thorax -10.5321 -0.922597 5.29596
lowerneck -13.0758 -0.583832 6.54663
upperneck 25.7715 -2.09452 -1.72313
head 10.3109 -0.548018 -1.99138
rclavicle -9.14409e-015 7.63333e-014
rhumerus 13.9143 -41.4738 12.2835
rradius 55.4633
rwrist 35.7992
rhand 23.4903 3.13175
rfingers 7.12502
rthumb 47.7716 -19.1869
lclavicle -9.14409e-015 7.63333e-014
lhumerus -102.181 -54.6033 126.357
lradius 90.204
lwrist 28.5469
lhand 4.44774 6.92006
lfingers 7.12502
lthumb 29.8431 34.5356
rfemur -47.6055 -22.3889 13.0013
rtibia 65.3187
rfoot -21.7617 16.3991
rtoes 0.280489
lfemur -44.6657 17.7932 -32.329
ltibia 62.445
lfoot -27.2026 -8.13873
ltoes -7.3619
1146
root 1.4291 16.0005 0.63659 14.505 -4.83685 5.19759
lowerback 4.79256 -2.26922 7.76764
upperback -7.23545 -1.51898 8.76628
thorax -10.5217 -0.925212 5.39595
lowerneck -13.0506 -0.53987 6.53602
upperneck 25.8184 -2.04784 -1.65621
head 10.327 -0.518329 -1.96057
rclavicle 5.24792e-014 -2.8625e-014
rhumerus 13.9362 -41.4584 12.2451
rradius 55.5082
rwrist 35.7526
rhand 23.4887 3.05877
rfingers 7.12502
rthumb 47.7701 -19.2606
lclavicle 5.24792e-014 -2.8625e-014
lhumerus -102.449 -54.5229 126.675
lradius 90.1761
lwrist 28.2629
lhand 4.48512 6.90448
lfingers 7.12502
lthumb 29.8787 34.5136
rfemur -47.4665 -22.4966 12.6145
rtibia 65.3464
rfoot -21.8691 16.334
rtoes -0.180971
lfemur -44.439 17.7376 -32.6151
ltibia 62.2899
lfoot -27.2434 -8.1249
ltoes -7.56596
